<svg width="20" height="20" viewBox="0 0 20 20" fill="none" xmlns="http://www.w3.org/2000/svg">
<path d="M15.8333 1.66675H7.5C6.58083 1.66675 5.83333 2.41425 5.83333 3.33341V7.98842L1.91083 11.9109C1.79432 12.0275 1.71498 12.1759 1.68284 12.3376C1.6507 12.4992 1.66721 12.6667 1.73026 12.819C1.79332 12.9712 1.90011 13.1013 2.03711 13.1929C2.17412 13.2845 2.3352 13.3334 2.5 13.3334V17.5001C2.5 17.7211 2.58779 17.9331 2.74407 18.0893C2.90035 18.2456 3.11231 18.3334 3.33333 18.3334H16.6667C16.8877 18.3334 17.0996 18.2456 17.2559 18.0893C17.4122 17.9331 17.5 17.7211 17.5 17.5001V3.33341C17.5 2.41425 16.7525 1.66675 15.8333 1.66675ZM9.16666 16.6667H4.16666V12.0117L6.66666 9.51175L9.16666 12.0117V16.6667ZM15.8333 16.6667H10.8333V13.3334C10.9983 13.3338 11.1597 13.2851 11.2969 13.1936C11.4342 13.1021 11.5412 12.9719 11.6043 12.8195C11.6674 12.6671 11.6839 12.4993 11.6515 12.3376C11.6191 12.1758 11.5394 12.0273 11.4225 11.9109L7.5 7.98842V3.33341H15.8333V16.6667Z" fill="white"/>
<path d="M9.16668 5H10.8333V6.66667H9.16668V5ZM12.5 5H14.1667V6.66667H12.5V5ZM12.5 8.35917H14.1667V10H12.5V8.35917ZM12.5 11.6667H14.1667V13.3333H12.5V11.6667ZM5.83334 12.5H7.50001V14.1667H5.83334V12.5Z" fill="white"/>
</svg>
