<svg width="20" height="20" viewBox="0 0 20 20" fill="none" xmlns="http://www.w3.org/2000/svg">
<path fill-rule="evenodd" clip-rule="evenodd" d="M9.14583 5.21157C9.63333 5.75323 9.47917 6.36657 9.0475 6.94823C8.93517 7.09665 8.81383 7.23803 8.68417 7.37157C8.60745 7.45177 8.52967 7.53095 8.45083 7.60907L7.81167 8.24907C7.72833 8.3324 8.3 9.47407 9.40917 10.5849C10.5175 11.6941 11.6592 12.2666 11.7433 12.1824L12.3825 11.5432C12.7342 11.1916 12.92 11.0216 13.1758 10.8541C13.7075 10.5041 14.2883 10.4099 14.7775 10.8474C16.375 11.9907 17.2792 12.6916 17.7225 13.1516C18.5867 14.0499 18.4725 15.4316 17.7275 16.2199C17.4692 16.4932 17.1408 16.8216 16.7533 17.1949C14.4108 19.5391 9.46583 18.1124 5.67583 14.3199C1.88583 10.5249 0.459167 5.57907 2.79833 3.2399C3.2175 2.81323 3.35667 2.6749 3.765 2.2724C4.52583 1.5224 5.97167 1.4049 6.85083 2.2724C7.3125 2.7299 8.05 3.6774 9.14583 5.21073V5.21157ZM13.56 12.7216L12.9217 13.3607C11.8358 14.4466 9.9875 13.5207 8.23083 11.7632C6.47333 10.0041 5.54833 8.15573 6.63417 7.0699L7.2725 6.43157C7.375 6.32907 7.4225 6.28157 7.4775 6.22323C7.55417 6.1424 7.61667 6.07157 7.6675 6.00907C6.69583 4.65657 6.03583 3.81157 5.68 3.45907C5.49667 3.27823 5.085 3.31157 4.93333 3.46073C4.53083 3.8574 4.39833 3.9899 3.98 4.4149C2.47667 5.91907 3.6275 9.91073 6.855 13.1407C10.08 16.3699 14.0717 17.5216 15.5867 16.0057C15.9675 15.6382 16.2783 15.3266 16.5175 15.0741C16.6908 14.8907 16.7217 14.5149 16.5225 14.3074C16.1917 13.9641 15.3808 13.3324 13.9808 12.3266C13.834 12.4511 13.6935 12.5829 13.56 12.7216Z" fill="white"/>
</svg>
