<svg width="54" height="54" viewBox="0 0 54 54" fill="none" xmlns="http://www.w3.org/2000/svg">
<path d="M4 17.1875C4 15.5465 4.6519 13.9727 5.81228 12.8123C6.97266 11.6519 8.54647 11 10.1875 11H42.8125C44.4535 11 46.0273 11.6519 47.1877 12.8123C48.3481 13.9727 49 15.5465 49 17.1875V21.125H4V17.1875ZM4 24.5H49V36.3125C49 37.9535 48.3481 39.5273 47.1877 40.6877C46.0273 41.8481 44.4535 42.5 42.8125 42.5H10.1875C8.54647 42.5 6.97266 41.8481 5.81228 40.6877C4.6519 39.5273 4 37.9535 4 36.3125V24.5ZM34.9375 32.375C34.4899 32.375 34.0607 32.5528 33.7443 32.8693C33.4278 33.1857 33.25 33.6149 33.25 34.0625C33.25 34.5101 33.4278 34.9393 33.7443 35.2557C34.0607 35.5722 34.4899 35.75 34.9375 35.75H40.5625C41.0101 35.75 41.4393 35.5722 41.7557 35.2557C42.0722 34.9393 42.25 34.5101 42.25 34.0625C42.25 33.6149 42.0722 33.1857 41.7557 32.8693C41.4393 32.5528 41.0101 32.375 40.5625 32.375H34.9375Z" fill="#212121"/>
</svg>
