<svg width="34" height="56" viewBox="0 0 34 56" fill="none" xmlns="http://www.w3.org/2000/svg">
<path d="M13.8 5.30561C13.4 11.8356 11 13.4681 11 7.2442C11 4.89748 10.7 3.06093 10.4 3.06093C8.5 3.06093 5.7 5.71373 4 9.18279C2.9 11.4275 1.5 13.264 1 13.264C0.4 13.264 0 13.9782 0 14.7945C0 16.1209 2.6 16.325 17 16.325C31.4 16.325 34 16.1209 34 14.7945C34 13.9782 33.6 13.264 33 13.264C32.5 13.264 31.3 11.8356 30.5 10.1011C28.7 6.52998 25.5 3.06093 24 3.06093C23.5 3.06093 23 4.89748 23 7.2442C23 13.4681 20.6 11.8356 20.2 5.30561C19.9 0.204062 19.8 0 17 0C14.2 0 14.1 0.204062 13.8 5.30561Z" fill="#212121"/>
<path d="M3.7 19.9979C2.4 21.3242 3 24.589 4.5 25.2012C5.4 25.5072 6.7 27.0376 7.60001 28.67C8.40001 30.3024 10.5 32.343 12.3 33.3632C14.7 34.6895 15.1 35.1997 13.8 35.5057C12.4 35.8118 12 36.9341 12 40.403V44.8921H17H22V40.403C22 36.9341 21.6 35.8118 20.3 35.5057C18.9 35.1997 19.3 34.6895 21.7 33.3632C23.5 32.343 25.6 30.3024 26.4 28.67C27.3 27.0376 28.6 25.5072 29.5 25.0991C30.5 24.7931 31 23.5688 30.8 22.2424C30.5 19.9979 30.1 19.8958 17.4 19.5898C10.3 19.4877 4.1 19.6918 3.7 19.9979Z" fill="#212121"/>
<path d="M5.1 37.1383C1.6 39.1788 0.1 42.6476 0 49.1773C0 55.0947 0 55.0947 3 55.0947C5.9 55.0947 6 54.8907 6 50.5036C6 47.3408 6.5 45.7084 7.5 45.3003C8.5 44.8922 9 43.2598 9 40.199C9 35.3018 8.7 35.0978 5.1 37.1383Z" fill="#212121"/>
<path d="M25 40.1987C25 43.2595 25.5 44.8919 26.5 45.3001C27.5 45.7082 28 47.3406 28 50.5035C28 54.8907 28.1 55.0947 31 55.0947C34 55.0947 34 54.9927 34 49.4832C34 42.7494 32.5 39.0764 28.9 37.1378C25 35.0973 25 35.1993 25 40.1987Z" fill="#212121"/>
<path d="M9 52.0341V55.0947H17H25V52.0341V48.9734H17H9V52.0341Z" fill="#212121"/>
</svg>
