<svg width="54" height="54" viewBox="0 0 54 54" fill="none" xmlns="http://www.w3.org/2000/svg">
<path d="M35.55 6.75C37.1799 6.75026 38.763 7.29505 40.0479 8.29785C41.3328 9.30066 42.2458 10.704 42.642 12.285L43.5082 15.75H45.5625C45.9703 15.75 46.3643 15.8977 46.6716 16.1657C46.9789 16.4338 47.1788 16.804 47.2343 17.208L47.25 17.4375C47.25 17.8453 47.1023 18.2393 46.8343 18.5466C46.5662 18.8539 46.196 19.0538 45.792 19.1093L45.5625 19.125H44.3565L44.8245 20.9835C45.5682 21.4349 46.1829 22.0705 46.6094 22.8288C47.0358 23.5871 47.2596 24.4425 47.259 25.3125V44.4307C47.259 45.475 46.8442 46.4766 46.1057 47.215C45.3673 47.9534 44.3658 48.3682 43.3215 48.3682H39.9375C38.8932 48.3682 37.8917 47.9534 37.1533 47.215C36.4148 46.4766 36 45.475 36 44.4307L35.9977 41.625H18.009V44.4307C18.009 45.475 17.5942 46.4766 16.8557 47.215C16.1173 47.9534 15.1158 48.3682 14.0715 48.3682H10.6875C9.64321 48.3682 8.64169 47.9534 7.90327 47.215C7.16484 46.4766 6.75 45.475 6.75 44.4307V25.3125C6.75 23.4788 7.72425 21.8722 9.1845 20.9857L9.65025 19.125H8.4375C8.02972 19.125 7.63573 18.9773 7.32841 18.7093C7.02108 18.4412 6.82121 18.071 6.76575 17.667L6.75 17.4375C6.75002 17.0297 6.8977 16.6357 7.16573 16.3284C7.43376 16.0211 7.804 15.8212 8.208 15.7657L8.4375 15.75H10.4918L11.3602 12.2895C11.7557 10.7073 12.6687 9.30266 13.9541 8.29894C15.2395 7.29522 16.8236 6.75001 18.4545 6.75H35.5477H35.55ZM14.6317 41.625H10.1228L10.125 44.4307C10.125 44.7412 10.377 44.9932 10.6875 44.9932H14.0715C14.2207 44.9932 14.3638 44.934 14.4692 44.8285C14.5747 44.723 14.634 44.5799 14.634 44.4307V41.625H14.6317ZM43.8818 41.625H39.3705L39.3728 44.4307C39.3728 44.7412 39.6248 44.9932 39.9353 44.9932H43.3193C43.4684 44.9932 43.6115 44.934 43.717 44.8285C43.8225 44.723 43.8818 44.5799 43.8818 44.4307V41.625V41.625ZM30.9398 31.5H23.0602L22.8308 31.5157C22.4268 31.5713 22.0567 31.7712 21.7888 32.0786C21.5209 32.3859 21.3733 32.7798 21.3733 33.1875C21.3733 33.5952 21.5209 33.9891 21.7888 34.2964C22.0567 34.6038 22.4268 34.8037 22.8308 34.8593L23.0602 34.875H30.9398L31.167 34.8593C31.5904 34.801 31.9759 34.5843 32.2457 34.2529C32.5155 33.9214 32.6495 33.5 32.6207 33.0736C32.5918 32.6472 32.4023 32.2477 32.0903 31.9556C31.7783 31.6635 31.3671 31.5007 30.9398 31.5V31.5ZM38.25 27C37.6533 27 37.081 27.2371 36.659 27.659C36.2371 28.081 36 28.6533 36 29.25C36 29.8467 36.2371 30.419 36.659 30.841C37.081 31.2629 37.6533 31.5 38.25 31.5C38.8467 31.5 39.419 31.2629 39.841 30.841C40.2629 30.419 40.5 29.8467 40.5 29.25C40.5 28.6533 40.2629 28.081 39.841 27.659C39.419 27.2371 38.8467 27 38.25 27ZM15.75 27C15.1533 27 14.581 27.2371 14.159 27.659C13.7371 28.081 13.5 28.6533 13.5 29.25C13.5 29.8467 13.7371 30.419 14.159 30.841C14.581 31.2629 15.1533 31.5 15.75 31.5C16.3467 31.5 16.919 31.2629 17.341 30.841C17.7629 30.419 18 29.8467 18 29.25C18 28.6533 17.7629 28.081 17.341 27.659C16.919 27.2371 16.3467 27 15.75 27ZM35.55 10.125H18.4523C17.5739 10.1249 16.7207 10.4185 16.0285 10.9592C15.3362 11.4998 14.8446 12.2563 14.6317 13.1085L12.8497 20.25H41.1592L39.3682 13.104C39.1546 12.2527 38.6626 11.4971 37.9704 10.9574C37.2782 10.4177 36.4255 10.1247 35.5477 10.125H35.55Z" fill="#212121"/>
</svg>
