<svg width="54" height="54" viewBox="0 0 54 54" fill="none" xmlns="http://www.w3.org/2000/svg">
<path d="M18 4.5H11.25C9.45979 4.5 7.7429 5.21116 6.47703 6.47703C5.21116 7.7429 4.5 9.45979 4.5 11.25V18H10.593C10.14 16.9636 10.01 15.8147 10.2199 14.7033C10.4298 13.5918 10.9699 12.5695 11.7697 11.7697C12.5695 10.9699 13.5918 10.4298 14.7033 10.2199C15.8147 10.01 16.9636 10.14 18 10.593V4.5ZM4.5 21.375V31.5C4.5 33.2902 5.21116 35.0071 6.47703 36.273C7.7429 37.5388 9.45979 38.25 11.25 38.25H18V23.76L14.13 27.63C13.8101 27.9281 13.387 28.0904 12.9498 28.0826C12.5126 28.0749 12.0955 27.8978 11.7863 27.5886C11.4772 27.2795 11.3001 26.8624 11.2924 26.4252C11.2846 25.988 11.4469 25.5649 11.745 25.245L15.615 21.375H4.5ZM21.375 38.25H24.7927C25.006 35.4872 25.9997 32.8419 27.6582 30.622C29.3167 28.4021 31.5717 26.6991 34.1606 25.7113C36.7495 24.7234 39.5658 24.4914 42.2815 25.0422C44.9972 25.593 47.5006 26.904 49.5 28.8225V21.375H23.76L27.63 25.245C27.7958 25.3995 27.9288 25.5858 28.021 25.7928C28.1132 25.9998 28.1628 26.2232 28.1668 26.4498C28.1708 26.6764 28.1291 26.9015 28.0443 27.1116C27.9594 27.3217 27.8331 27.5126 27.6728 27.6728C27.5126 27.8331 27.3217 27.9594 27.1116 28.0443C26.9015 28.1291 26.6764 28.1708 26.4498 28.1668C26.2232 28.1628 25.9998 28.1132 25.7928 28.021C25.5858 27.9288 25.3995 27.7958 25.245 27.63L21.375 23.76V38.25ZM49.5 18H28.782C29.235 16.9636 29.365 15.8147 29.1551 14.7033C28.9452 13.5918 28.4051 12.5695 27.6053 11.7697C26.8055 10.9699 25.7832 10.4298 24.6717 10.2199C23.5603 10.01 22.4114 10.14 21.375 10.593V4.5H42.75C44.5402 4.5 46.2571 5.21116 47.523 6.47703C48.7888 7.7429 49.5 9.45979 49.5 11.25V18ZM23.625 18H21.375V15.75C21.375 15.305 21.507 14.87 21.7542 14.5C22.0014 14.13 22.3528 13.8416 22.764 13.6713C23.1751 13.501 23.6275 13.4564 24.064 13.5432C24.5004 13.63 24.9013 13.8443 25.216 14.159C25.5307 14.4737 25.7449 14.8746 25.8318 15.311C25.9186 15.7475 25.874 16.1999 25.7037 16.611C25.5334 17.0222 25.245 17.3736 24.875 17.6208C24.505 17.868 24.07 18 23.625 18ZM18 18H15.75C15.3058 18 14.8715 17.8685 14.5019 17.622C14.1322 17.3756 13.8439 17.0252 13.673 16.6151C13.5022 16.2051 13.4566 15.7536 13.542 15.3176C13.6274 14.8817 13.8399 14.4807 14.1528 14.1654C14.4656 13.85 14.8649 13.6343 15.3001 13.5454C15.7354 13.4566 16.1872 13.4986 16.5986 13.6661C17.0101 13.8337 17.3627 14.1193 17.6121 14.4869C17.8615 14.8545 17.9964 15.2878 18 15.732V18ZM51.75 39.375C51.75 36.0929 50.4462 32.9453 48.1254 30.6245C45.8047 28.3038 42.6571 27 39.375 27C36.0929 27 32.9453 28.3038 30.6245 30.6245C28.3038 32.9453 27 36.0929 27 39.375C27 42.6571 28.3038 45.8047 30.6245 48.1254C32.9453 50.4462 36.0929 51.75 39.375 51.75C42.6571 51.75 45.8047 50.4462 48.1254 48.1254C50.4462 45.8047 51.75 42.6571 51.75 39.375ZM40.5 40.5L40.5022 46.1317C40.5022 46.4301 40.3837 46.7163 40.1727 46.9272C39.9618 47.1382 39.6756 47.2567 39.3772 47.2567C39.0789 47.2567 38.7927 47.1382 38.5817 46.9272C38.3708 46.7163 38.2522 46.4301 38.2522 46.1317V40.5H32.616C32.3176 40.5 32.0315 40.3815 31.8205 40.1705C31.6095 39.9595 31.491 39.6734 31.491 39.375C31.491 39.0766 31.6095 38.7905 31.8205 38.5795C32.0315 38.3685 32.3176 38.25 32.616 38.25H38.25V32.625C38.25 32.3266 38.3685 32.0405 38.5795 31.8295C38.7905 31.6185 39.0766 31.5 39.375 31.5C39.6734 31.5 39.9595 31.6185 40.1705 31.8295C40.3815 32.0405 40.5 32.3266 40.5 32.625V38.25H46.1182C46.4166 38.25 46.7028 38.3685 46.9137 38.5795C47.1247 38.7905 47.2432 39.0766 47.2432 39.375C47.2432 39.6734 47.1247 39.9595 46.9137 40.1705C46.7028 40.3815 46.4166 40.5 46.1182 40.5H40.5Z" fill="#212121"/>
</svg>
