<svg width="54" height="54" viewBox="0 0 54 54" fill="none" xmlns="http://www.w3.org/2000/svg">
<path d="M49.5 27C49.5 14.5733 39.4268 4.5 27 4.5C14.5733 4.5 4.5 14.5733 4.5 27C4.5 39.4268 14.5733 49.5 27 49.5C39.4268 49.5 49.5 39.4268 49.5 27ZM16.875 19.674C17.6558 18.8145 18.9338 18 20.8125 18C23.4045 18 25.074 19.782 25.6612 21.7373C26.2305 23.643 25.8862 26.001 24.2663 27.6278C23.7044 28.1679 23.1084 28.6715 22.482 29.1353L22.392 29.205C21.762 29.691 21.1995 30.132 20.7045 30.6225C20.1307 31.1985 19.6605 31.8263 19.3882 32.625H24.1875C24.6351 32.625 25.0643 32.8028 25.3807 33.1193C25.6972 33.4357 25.875 33.8649 25.875 34.3125C25.875 34.7601 25.6972 35.1893 25.3807 35.5057C25.0643 35.8222 24.6351 36 24.1875 36H17.4375C16.9899 36 16.5607 35.8222 16.2443 35.5057C15.9278 35.1893 15.75 34.7601 15.75 34.3125C15.75 31.5068 16.929 29.6257 18.324 28.2352C18.99 27.5693 19.7145 27.009 20.3265 26.5343L20.3332 26.5298C20.9767 26.0325 21.4762 25.6455 21.8745 25.2472C22.4865 24.6307 22.7003 23.616 22.428 22.7048C22.1693 21.8475 21.5955 21.375 20.8125 21.375C20.0183 21.375 19.6087 21.6833 19.3725 21.9443C19.2343 22.0968 19.1218 22.2708 19.0395 22.4595V22.4662C18.9017 22.8923 18.6002 23.2462 18.2014 23.45C17.8027 23.6538 17.3393 23.6908 16.9132 23.553C16.4872 23.4152 16.1333 23.1137 15.9295 22.7149C15.7257 22.3162 15.6887 21.8528 15.8265 21.4268L15.9052 21.2108C16.1364 20.6464 16.4638 20.1264 16.8728 19.674H16.875ZM29.8125 18C30.2601 18 30.6893 18.1778 31.0057 18.4943C31.3222 18.8107 31.5 19.2399 31.5 19.6875V25.875H34.875V19.6875C34.875 19.2399 35.0528 18.8107 35.3693 18.4943C35.6857 18.1778 36.1149 18 36.5625 18C37.0101 18 37.4393 18.1778 37.7557 18.4943C38.0722 18.8107 38.25 19.2399 38.25 19.6875V34.245C38.25 34.6926 38.0722 35.1218 37.7557 35.4382C37.4393 35.7547 37.0101 35.9325 36.5625 35.9325C36.1149 35.9325 35.6857 35.7547 35.3693 35.4382C35.0528 35.1218 34.875 34.6926 34.875 34.245V29.25H29.8125C29.3649 29.25 28.9357 29.0722 28.6193 28.7557C28.3028 28.4393 28.125 28.0101 28.125 27.5625V19.6875C28.125 19.2399 28.3028 18.8107 28.6193 18.4943C28.9357 18.1778 29.3649 18 29.8125 18Z" fill="#212121"/>
</svg>
