<svg width="30" height="30" viewBox="0 0 30 30" fill="none" xmlns="http://www.w3.org/2000/svg">
<path d="M22.4964 6C23.3251 5.99801 23.998 6.66765 24 7.49638C24.002 8.32514 23.3323 8.998 22.5036 8.99999C21.6749 9.00199 21.002 8.33237 21 7.50362C20.998 6.67486 21.6676 6.002 22.4964 6Z" fill="#1A1A1A"/>
<path d="M14.9819 7.50002C19.1237 7.49002 22.49 10.8402 22.5 14.9819C22.5099 19.1236 19.1599 22.49 15.0181 22.5C10.8763 22.5099 7.51 19.1598 7.50002 15.018C7.49005 10.8763 10.8402 7.51 14.9819 7.50002ZM15.0108 19.5C17.4959 19.494 19.506 17.4742 19.5 14.9892C19.494 12.5041 17.4742 10.494 14.9891 10.5C12.5041 10.506 10.4941 12.5258 10.5 15.0109C10.506 17.4959 12.5258 19.506 15.0108 19.5Z" fill="#1A1A1A"/>
<path d="M30 15V15.1349C30 28.9211 28.9211 30 15.1348 30H14.8652C1.07889 30 0 28.9211 0 15.1349V14.8651C0 1.07892 1.07889 0 14.8652 0H15C28.9113 0 30 1.08871 30 15ZM27 18V12C27 3.65324 26.3468 2.99999 18 2.99999H12C3.65321 2.99999 2.99996 3.65324 2.99996 12V18C2.99996 26.3468 3.65321 27 12 27H18C26.3468 27 27 26.3468 27 18Z" fill="#1A1A1A"/>
</svg>
