<svg width="20" height="21" viewBox="0 0 20 21" fill="none" xmlns="http://www.w3.org/2000/svg">
<path d="M14.9367 14.3823C14.7309 14.9593 13.7192 15.5172 13.2658 15.5564C12.8084 15.5989 12.3817 15.7621 10.2925 14.9402C7.77255 13.9484 6.18338 11.3688 6.0592 11.2022C5.93506 11.0399 5.0509 9.86159 5.0509 8.64584C5.0509 7.42595 5.69089 6.82891 5.91506 6.58077C6.14339 6.33264 6.41087 6.271 6.57755 6.271C6.74004 6.271 6.90672 6.271 7.05089 6.27849C7.22922 6.28264 7.42339 6.29432 7.60922 6.70482C7.83005 7.19279 8.31086 8.41685 8.37254 8.54093C8.43423 8.665 8.47756 8.81239 8.3917 8.97476C8.31005 9.14129 8.26752 9.24205 8.14756 9.38946C8.02338 9.53267 7.88755 9.71087 7.77503 9.81912C7.65088 9.94317 7.52339 10.0789 7.66669 10.3262C7.81006 10.5735 8.3067 11.3837 9.04253 12.0382C9.98837 12.8826 10.7867 13.1424 11.035 13.2665C11.2833 13.3905 11.4267 13.3714 11.57 13.2049C11.7175 13.0425 12.19 12.4846 12.3567 12.2364C12.5192 11.9883 12.6858 12.0308 12.9109 12.1124C13.1392 12.194 14.3567 12.7943 14.605 12.9184C14.8533 13.0425 15.0159 13.1041 15.0783 13.2049C15.1425 13.3089 15.1425 13.8044 14.9367 14.3823Z" fill="white"/>
<path d="M10 0.939941C15.5229 0.939941 20 5.41371 20 10.9324C20 16.451 15.5229 20.9248 10 20.9248C8.22998 20.9248 6.56852 20.4634 5.1263 19.6572L0.0974579 20.7815L1.37724 15.9913C0.503284 14.5071 0 12.7789 0 10.9324C2.53936e-08 5.41371 4.47717 0.939941 10 0.939941ZM10 19.108C14.5187 19.108 18.1818 15.4476 18.1818 10.9324C18.1818 6.41708 14.5187 2.75676 10 2.75676C5.48129 2.75676 1.81819 6.41708 1.81819 10.9324C1.81819 12.702 2.38669 14.3356 3.34295 15.6737L2.63242 18.3335L5.42271 17.7097C6.72909 18.5924 8.30422 19.108 10 19.108Z" fill="white"/>
</svg>
