<svg width="20" height="20" viewBox="0 0 20 20" fill="none" xmlns="http://www.w3.org/2000/svg">
<path d="M4.66464 9.82265C5.10192 9.63682 12.6724 6.42483 13.2645 6.21154C13.6968 6.05585 14.0687 5.99559 14.3201 6.11612C14.5276 6.21566 14.6337 6.43864 14.6015 6.77405C14.4954 7.88152 13.6332 13.5018 13.4494 14.0655C13.2925 14.5471 13.1268 14.9624 12.8113 14.9624C12.4959 14.9624 12.1518 14.8526 11.8121 14.6101C11.4724 14.3677 9.21803 12.8568 8.9047 12.6594C8.63006 12.4864 8.33954 12.0548 8.74896 11.6381C9.08628 11.2948 11.6415 8.81648 11.8599 8.59825C12.0783 8.38002 11.8649 8.10042 11.598 8.31865C11.3311 8.53688 7.60762 11.0262 7.28518 11.2263C6.98084 11.4153 6.43825 11.5294 5.96113 11.3979C5.46556 11.2613 4.62679 11.0075 4.29402 10.8889C3.97397 10.7747 3.85779 10.6646 3.85779 10.469C3.85779 10.1907 4.25025 9.99875 4.66464 9.82265Z" fill="white"/>
<path d="M10 0C15.5229 0 20 4.47364 20 9.99219C20 15.5107 15.5229 19.9844 10 19.9844C4.47717 19.9844 0 15.5107 0 9.99219C0 4.47364 4.47717 0 10 0ZM10 18.1676C14.5187 18.1676 18.1818 14.5074 18.1818 9.99219C18.1818 5.47702 14.5187 1.81677 10 1.81677C5.48132 1.81677 1.81819 5.47702 1.81819 9.99219C1.81819 14.5074 5.48132 18.1676 10 18.1676Z" fill="white"/>
</svg>
