<svg width="20" height="21" viewBox="0 0 20 21" fill="none" xmlns="http://www.w3.org/2000/svg">
<path d="M9.98795 5.96632C12.7492 5.95966 14.9933 8.19147 15 10.9506C15.0066 13.7097 12.7732 15.9523 10.0121 15.959C7.25085 15.9656 5.00666 13.7338 5.00001 10.9747C4.99337 8.21553 7.22677 5.97297 9.98795 5.96632ZM10.0072 13.9604C11.6639 13.9565 13.004 12.6109 13 10.9554C12.996 9.29993 11.6495 7.96087 9.99275 7.96485C8.33604 7.96886 6.99603 9.3144 6.99999 10.9699C7.00401 12.6254 8.35054 13.9644 10.0072 13.9604Z" fill="white"/>
<path d="M20 10.9626V11.0525C20 20.2363 19.2807 20.9551 10.0899 20.9551H9.9101C0.71926 20.9551 0 20.2363 0 11.0525V10.8728C0 1.68895 0.71926 0.970215 9.9101 0.970215H9.99998C19.2742 0.970215 20 1.69547 20 10.9626ZM18 12.9611V8.96417C18 3.40386 17.5645 2.96869 12 2.96869H8.00001C2.43547 2.96869 1.99998 3.40386 1.99998 8.96417V12.9611C1.99998 18.5214 2.43547 18.9566 8.00001 18.9566H12C17.5645 18.9566 18 18.5214 18 12.9611Z" fill="white"/>
</svg>
