<svg width="30" height="30" viewBox="0 0 30 30" fill="none" xmlns="http://www.w3.org/2000/svg">
<path d="M6.99703 14.7454C7.65296 14.4664 19.0087 9.64475 19.8969 9.32457C20.5453 9.09086 21.1032 9.0004 21.4802 9.18134C21.7915 9.33076 21.9506 9.66549 21.9024 10.169C21.7432 11.8315 20.4499 20.2683 20.1743 21.1146C19.9388 21.8374 19.6903 22.4609 19.2171 22.4609C18.7439 22.4609 18.2278 22.2961 17.7183 21.9321C17.2087 21.5681 13.8271 19.3001 13.3571 19.0038C12.9452 18.7441 12.5094 18.0962 13.1235 17.4707C13.6295 16.9553 17.4623 13.235 17.7899 12.9074C18.1175 12.5798 17.7975 12.1601 17.3971 12.4877C16.9967 12.8152 11.4115 16.5521 10.9278 16.8525C10.4713 17.1361 9.65745 17.3074 8.94177 17.1101C8.19842 16.905 6.94026 16.524 6.44111 16.3459C5.96103 16.1746 5.78676 16.0093 5.78676 15.7156C5.78676 15.2979 6.37546 15.0097 6.99703 14.7454Z" fill="#1A1A1A"/>
<path d="M15 0C23.2843 0 30 6.71571 30 15C30 23.2843 23.2843 30 15 30C6.71576 30 0 23.2843 0 15C0 6.71571 6.71576 0 15 0ZM15 27.2727C21.7781 27.2727 27.2728 21.778 27.2728 15C27.2728 8.22196 21.7781 2.72729 15 2.72729C8.22198 2.72729 2.72729 8.22196 2.72729 15C2.72729 21.778 8.22198 27.2727 15 27.2727Z" fill="#1A1A1A"/>
</svg>
