<svg width="46" height="42" viewBox="0 0 46 42" fill="none" xmlns="http://www.w3.org/2000/svg">
<path d="M4.4375 0.75C3.98995 0.75 3.56073 0.927789 3.24426 1.24426C2.92779 1.56072 2.75 1.98995 2.75 2.4375C2.75 2.88505 2.92779 3.31428 3.24426 3.63074C3.56073 3.94721 3.98995 4.125 4.4375 4.125H6.782L0.623752 19.2383C0.541712 19.4405 0.499686 19.6567 0.500002 19.875C0.500002 20.9092 0.703694 21.9332 1.09945 22.8886C1.49521 23.8441 2.07527 24.7122 2.80654 25.4435C3.5378 26.1747 4.40593 26.7548 5.36137 27.1506C6.31681 27.5463 7.34084 27.75 8.375 27.75C9.40916 27.75 10.4332 27.5463 11.3886 27.1506C12.3441 26.7548 13.2122 26.1747 13.9435 25.4435C14.6747 24.7122 15.2548 23.8441 15.6506 22.8886C16.0463 21.9332 16.25 20.9092 16.25 19.875C16.2503 19.6567 16.2083 19.4405 16.1263 19.2383L9.968 4.125H21.3125V31.125H12.3193C10.9766 31.125 9.68893 31.6584 8.73952 32.6078C7.79012 33.5572 7.25675 34.8448 7.25675 36.1875C7.25675 37.5302 7.79012 38.8178 8.73952 39.7672C9.68893 40.7166 10.9766 41.25 12.3193 41.25H33.6875C35.0302 41.25 36.3178 40.7166 37.2672 39.7672C38.2166 38.8178 38.75 37.5302 38.75 36.1875C38.75 34.8448 38.2166 33.5572 37.2672 32.6078C36.3178 31.6584 35.0302 31.125 33.6875 31.125H24.6875V4.125H36.032L29.8737 19.2383C29.7917 19.4405 29.7497 19.6567 29.75 19.875C29.75 21.9636 30.5797 23.9666 32.0565 25.4435C33.5334 26.9203 35.5364 27.75 37.625 27.75C39.7136 27.75 41.7166 26.9203 43.1935 25.4435C44.6703 23.9666 45.5 21.9636 45.5 19.875C45.5003 19.6567 45.4583 19.4405 45.3762 19.2383L39.218 4.125H41.5625C42.01 4.125 42.4393 3.94721 42.7557 3.63074C43.0722 3.31428 43.25 2.88505 43.25 2.4375C43.25 1.98995 43.0722 1.56072 42.7557 1.24426C42.4393 0.927789 42.01 0.75 41.5625 0.75H4.4375ZM8.375 9.1605L12.0538 18.1875H4.69625L8.375 9.1605ZM33.9462 18.1875L37.625 9.1605L41.3037 18.1875H33.9462Z" fill="#212121"/>
</svg>
