<svg width="31" height="31" viewBox="0 0 31 31" fill="none" xmlns="http://www.w3.org/2000/svg">
<path d="M22.8943 20.5449C22.5856 21.4111 21.068 22.2486 20.388 22.3074C19.7018 22.3712 19.0618 22.6161 15.928 21.3824C12.148 19.8936 9.76428 16.0211 9.57801 15.7711C9.39179 15.5274 8.06555 13.7587 8.06555 11.9337C8.06555 10.1024 9.02553 9.20616 9.3618 8.83367C9.70429 8.46118 10.1055 8.36865 10.3555 8.36865C10.5993 8.36865 10.8493 8.36865 11.0655 8.3799C11.333 8.38614 11.6243 8.40366 11.903 9.01989C12.2343 9.75241 12.9555 11.5899 13.048 11.7762C13.1406 11.9624 13.2056 12.1837 13.0768 12.4274C12.9543 12.6774 12.8905 12.8287 12.7106 13.0499C12.5243 13.2649 12.3205 13.5324 12.1518 13.6949C11.9655 13.8811 11.7743 14.0849 11.9893 14.4562C12.2043 14.8274 12.9493 16.0436 14.053 17.0262C15.4718 18.2936 16.6693 18.6837 17.0418 18.8699C17.4143 19.0561 17.6293 19.0274 17.8443 18.7774C18.0655 18.5336 18.7743 17.6961 19.0243 17.3236C19.268 16.9512 19.518 17.0149 19.8555 17.1374C20.1981 17.2599 22.0243 18.1611 22.3968 18.3474C22.7693 18.5336 23.0131 18.6261 23.1068 18.7774C23.203 18.9336 23.203 19.6774 22.8943 20.5449Z" fill="#1A1A1A"/>
<path d="M15.4893 0.366211C23.7735 0.366211 30.4893 7.08194 30.4893 15.3662C30.4893 23.6505 23.7735 30.3662 15.4893 30.3662C12.8342 30.3662 10.342 29.6736 8.17871 28.4634L0.635445 30.1511L2.55512 22.9603C1.24418 20.7324 0.489258 18.1381 0.489258 15.3662C0.489258 7.08194 7.20501 0.366211 15.4893 0.366211ZM15.4893 27.6389C22.2673 27.6389 27.762 22.1442 27.762 15.3662C27.762 8.58815 22.2673 3.0935 15.4893 3.0935C8.71119 3.0935 3.21654 8.58815 3.21654 15.3662C3.21654 18.0226 4.0693 20.475 5.50369 22.4837L4.43788 26.4763L8.62331 25.5398C10.5829 26.8649 12.9456 27.6389 15.4893 27.6389Z" fill="#1A1A1A"/>
</svg>
